<svg width="24" height="37" xmlns="http://www.w3.org/2000/svg">
    <path d="M18.235 23.47a5.765 5.765 0 0 1 0 11.53H5.765a5.765 5.765 0 0 1 0-11.53h12.47zM6.592 25.117c-2.334 0-4.226 1.844-4.226 4.118s1.892 4.118 4.226 4.118c2.333 0 4.225-1.844 4.225-4.118s-1.892-4.118-4.225-4.118zm11.154 0c-2.333 0-4.225 1.844-4.225 4.118s1.892 4.118 4.225 4.118c2.334 0 4.226-1.844 4.226-4.118s-1.892-4.118-4.226-4.118zM15.508 2a8.492 8.492 0 0 1 8.483 8.106c.009.07.008.14.007.209l.002.177c-.214 6.324-5.504 11.388-12 11.388S.214 16.816.006 10.493H0l.002-.179L0 10.106C.21 5.596 3.932 2 8.492 2h7.016zm.426 11.773c-1.63 0-2.95 1.296-2.95 2.895 0 1.6 1.32 2.895 2.95 2.895 1.63 0 2.951-1.296 2.951-2.895s-1.32-2.895-2.95-2.895zm-7.868 0c-1.63 0-2.951 1.296-2.951 2.895 0 1.6 1.32 2.895 2.95 2.895 1.63 0 2.951-1.296 2.951-2.895s-1.32-2.895-2.95-2.895zM12 7.597c-1.63 0-2.95 1.296-2.95 2.895 0 1.6 1.32 2.895 2.95 2.895 1.63 0 2.95-1.296 2.95-2.895S13.63 7.597 12 7.597zm7.475 0c-1.63 0-2.95 1.296-2.95 2.895 0 1.6 1.32 2.895 2.95 2.895 1.63 0 2.951-1.296 2.951-2.895s-1.32-2.895-2.95-2.895zm-14.95 0c-1.63 0-2.951 1.296-2.951 2.895 0 1.6 1.32 2.895 2.95 2.895 1.63 0 2.951-1.296 2.951-2.895s-1.32-2.895-2.95-2.895zm3.737-4.246c-1.086 0-1.967.864-1.967 1.93 0 1.066.88 1.93 1.967 1.93 1.087 0 1.968-.864 1.968-1.93 0-1.066-.881-1.93-1.968-1.93zm7.476 0c-1.087 0-1.968.864-1.968 1.93 0 1.066.881 1.93 1.968 1.93 1.086 0 1.967-.864 1.967-1.93 0-1.066-.88-1.93-1.967-1.93z" fill="#2232CB" fill-rule="evenodd"/>
</svg>
