<svg width="24" height="24" xmlns="http://www.w3.org/2000/svg">
    <path d="M15.456 2a8.544 8.544 0 0 1 8.535 8.155c.009.07.008.14.007.21l.002.179C23.786 16.906 18.496 22 12 22S.214 16.906.006 10.544H0l.002-.179-.002-.21C.212 5.617 3.955 2 8.544 2h6.912zm.478 11.845c-1.63 0-2.95 1.304-2.95 2.912 0 1.609 1.32 2.913 2.95 2.913 1.63 0 2.951-1.304 2.951-2.913 0-1.608-1.32-2.912-2.95-2.912zm-7.868 0c-1.63 0-2.951 1.304-2.951 2.912 0 1.609 1.32 2.913 2.95 2.913 1.63 0 2.951-1.304 2.951-2.913 0-1.608-1.32-2.912-2.95-2.912zM12 7.63c-1.63 0-2.95 1.304-2.95 2.913 0 1.608 1.32 2.912 2.95 2.912 1.63 0 2.95-1.304 2.95-2.912 0-1.609-1.32-2.913-2.95-2.913zm7.475 0c-1.63 0-2.95 1.304-2.95 2.913 0 1.608 1.32 2.912 2.95 2.912 1.63 0 2.951-1.304 2.951-2.912 0-1.609-1.32-2.913-2.95-2.913zm-14.95 0c-1.63 0-2.951 1.304-2.951 2.913 0 1.608 1.32 2.912 2.95 2.912 1.63 0 2.951-1.304 2.951-2.912 0-1.609-1.32-2.913-2.95-2.913zM8.262 3.36c-1.086 0-1.967.87-1.967 1.942s.88 1.942 1.967 1.942c1.087 0 1.968-.87 1.968-1.942s-.881-1.942-1.968-1.942zm7.476 0c-1.087 0-1.968.87-1.968 1.942s.881 1.942 1.968 1.942c1.086 0 1.967-.87 1.967-1.942s-.88-1.942-1.967-1.942z" fill="#2232CB" fill-rule="evenodd"/>
</svg>
