<svg width="14" height="14" xmlns="http://www.w3.org/2000/svg">
    <defs>
        <filter color-interpolation-filters="auto" id="a">
            <feColorMatrix in="SourceGraphic" values="0 0 0 0 0.133333 0 0 0 0 0.196078 0 0 0 0 0.796078 0 0 0 1.000000 0"/>
        </filter>
    </defs>
    <g transform="translate(-25 -60)" filter="url(#a)" fill="none" fill-rule="evenodd">
        <path d="m30.76 73.584-5.401-5.722c-.06-.063-.09-.126-.15-.19-.03-.031-.03-.063-.06-.095s-.03-.095-.06-.127c-.03-.031-.03-.095-.03-.126 0-.032-.03-.064-.03-.127 0-.064-.029-.159-.029-.222v-.032c0-.063 0-.158.03-.222 0-.031.03-.063.03-.095 0-.031.03-.095.03-.127.03-.031.03-.095.06-.126.03-.032.03-.064.06-.095.03-.064.089-.127.149-.19v-.032l5.4-5.68a1.136 1.136 0 0 1 1.69 0c.239.254.353.566.353.883 0 .317-.12.628-.354.882l-3.383 3.587h8.694c.653 0 1.186.565 1.186 1.257 0 .693-.533 1.258-1.186 1.258h-8.694l3.383 3.587c.24.254.354.565.354.882 0 .317-.12.629-.354.883a1.144 1.144 0 0 1-1.689-.011z" fill="#F02" fill-rule="nonzero"/>
    </g>
</svg>
