<svg width="24" height="24" xmlns="http://www.w3.org/2000/svg">
    <path d="M12 0c6.627 0 12 5.373 12 12s-5.373 12-12 12S0 18.627 0 12 5.373 0 12 0zm-.891 16.65a.681.681 0 0 0-.964.964l1.05 1.05-1.054 1.053a.67.67 0 0 0 .949.948l1.053-1.053 1.054 1.053a.681.681 0 1 0 .964-.963l-1.054-1.054 1.05-1.05a.67.67 0 0 0-.948-.948l-1.05 1.05zM7.322 8.136a4.068 4.068 0 1 0 0 8.135 4.068 4.068 0 0 0 0-8.135zm9.356 0a4.068 4.068 0 1 0 0 8.135 4.068 4.068 0 0 0 0-8.135zm-5.57-4.503a.681.681 0 0 0-.963.964l1.05 1.05L10.141 6.7a.67.67 0 1 0 .949.948l1.053-1.053 1.054 1.053a.681.681 0 1 0 .964-.963L13.107 5.63l1.05-1.05a.67.67 0 0 0-.948-.948l-1.05 1.05z" fill="#2232CB" fill-rule="evenodd"/>
</svg>
